<?xml version="1.0" encoding="UTF-8"?>
<svg id="Layer_2" data-name="Layer 2" xmlns="http://www.w3.org/2000/svg" viewBox="0 0 250 250">
  <defs>
    <style>
      .cls-1 {
        fill-rule: evenodd;
      }

      .cls-1, .cls-2, .cls-3, .cls-4 {
        fill: #7c2e9a;
      }

      .cls-2 {
        opacity: .5;
      }

      .cls-3 {
        opacity: .25;
      }

      .cls-5 {
        fill: none;
        opacity: .75;
      }
    </style>
  </defs>
  <g id="Layer_3" data-name="Layer 3">
    <g>
      <path class="cls-3" d="m182.33,121.93c-1.14,1.32-5.87,9.72-7.09,11.04-1.23,1.31-3.42.53-5.26-.39-1.84-.92-1.93-6.88-.79-8.63,1.14-1.75,3.2-3.15,3.99-4.64.79-1.49,4.82-7.66,4.82-7.66,1.09-7.23-3.97-6.27-11.26-4.95-5.78,1.05-15.99,10.34-21.07,14.67-5.08,4.34-10.81,5.55-13.18,5.21-2.49-.36-4.47-1.4-5.52-3.2-1.05-1.8,2.36-3.55,3.85-4.34,1.87-.98,3.59-2.06,6.53-3.28,2.93-1.23,11.08-8.09,11.08-8.09,0,0-3.37-1.8-3.42-2.59-.04-.79,1.88-6.13,1.75-7.18-.13-1.05-1.88-3.02-1.53-4.07s4.69-10.29,6.09-13.18c1.4-2.89,3.99-2.41,5.91-2.85.98-.22,3.4-.61,6.28-1.17-10.57-8.42-23.95-13.47-38.51-13.47-34.16,0-61.85,27.69-61.85,61.85s27.69,61.85,61.85,61.85,61.85-27.69,61.85-61.85c0-2.65-.19-5.25-.51-7.8-1.86,2.31-3.51,4.16-4.01,4.74Z"/>
      <g>
        <path class="cls-4" d="m28.49,176.98c3.98-1.75,9.23-3.9,10.63-5.04s2.45-2.93,3.94-5.3,3.65-3.72,6.06-2.19,2.39,2.01,2.39,2.01c0,0,1.58,4.42,2.76,5.3s5.19,1.84,6.87,1.71,6.01-.22,7.32,1.62,1.75,6.09.74,7.18-4.38,1.71-6.88,2.98-15.2,15.77-15.37,15.33-18.47-23.61-18.47-23.61Z"/>
        <path class="cls-4" d="m54.71,167.61c-.21,2.82,3.81,4.34,7.88,4.51,4.07.18,5.62-.31,7.17,1.62s1.68-.61,1.37-3.07-1.71-7.06-6.61-7.38-9.46-.45-9.81,4.32Z"/>
        <path class="cls-4" d="m56.32,162.41c-.37.34-.04.94.44.8,3.24-.92,9.24-1.99,11.94.2,3.16,2.57,4.68,7.28,3.11,12.48-.12.41.41.68.67.35,1.98-2.55,5-7.71,1.55-12.31-4.81-6.4-10.95-6.49-13.59-4.79-1.43.92-2.98,2.25-4.11,3.27Z"/>
        <path class="cls-4" d="m57.21,156.88c1.27,1.45,3.24-.04,5.78-.96s10.69-1.03,12.35,1.57,1.53,13.94,1.71,15.16-.18,2.67,3.33,2.15c3.5-.53,5.17-1.21,6.31-2.42s3.5-2.39,5.61-2.88,7.23-1.62,8.58-1.36,3.11,1.8,4.69.88,4.12-2.75,3.33-5.21-2.98-3.55-2.67-4.74.79-3.15.39-4.07-3.07-2.58-3.99-3.85.26-6.48-2.54-8.06-6.92-1.45-7.88-2.8-.83-1.05-1.53-1.18-1.05-3.02-4.47-2.15-4.14,3.83-6.48,5.56c-2.72,2.01-6.54,2.93-9.96,6-2.69,2.42-6.9,2.93-8.92,4.25s-3.64,4.12-3.64,4.12Z"/>
        <path class="cls-4" d="m91.32,135.07c-.78,1.25,1.93,1.18,2.54,2.72s.35,2.23,1.75,2.5,2.93-.92,4.77-2.1,6.74-1.31,5.69-4.25-3.46-3.81-4.69-3.64-6.57,3.68-7.31,4.03-2.1-.31-2.76.74Z"/>
        <path class="cls-4" d="m103.1,142.6c-.14.92,1.97,2.5,1.45,3.46s-2.06,2.19-.35,2.63,3.02-.09,5.91-.35c2.89-.26,5.39-2.06,5.04-3.07s-.83-3.02-2.58-3.5-1.84.09-3.24.26-3.59-.22-4.64.09-1.49-.09-1.58.48Z"/>
        <path class="cls-4" d="m106.96,151.93c-.23,1.07.31.7.83,2.28s-.97,1.58-.42,2.5,1.64,1.8,3.83,1.49,5.91-.53,6.74-.44,1.18.57,1.4-.04,1.23-2.5,0-4.29-1.05-2.15-2.67-1.97-5.43,1.05-6.48.61-2.98-1.36-3.24-.13Z"/>
        <path class="cls-4" d="m110.73,161.96c-1.09.48-.96.89-.18,1.85s-.79,2.49-.22,3.28.92.22,2.46.22,3.85.44,4.25.37,2.23-2.3,1.58-3.31-1.36-2.15-2.76-1.97-1.6.04-2.42-.04-2.7-.39-2.7-.39Z"/>
        <path class="cls-4" d="m112.35,168.36c-.41.65-.96,1.36-.7,1.71s1.37.91,1.78,1,1.41.27,2.33-.52,1.88-.91,1.71-1.53-.9-.92-2.29-.88-2.45-.39-2.84.22Z"/>
        <path class="cls-4" d="m104.2,128.63c-.7,1.05-.31,1.49,1.09,1.64s1.99.45,1.94,1.17.18,2.62.9,3.22,3.18.32,4.39-.32,2.24-1.22,2.38-1.76.33-1.69,0-2.38-1.51-1.5-2.33-1.84-2.29-.11-4.14.16-4.23.1-4.23.1Z"/>
        <path class="cls-4" d="m113.67,126.62c-.46.52-.2,1.18,1.54,1.61s1.15,2.95,1.4,3.19,1.38.66,1.87.35,4.14-1.87,4.46-3.39.36-2.85-1.13-3.19-2.73.64-3.72.78-3.9.05-4.42.66Z"/>
        <path class="cls-4" d="m62.75,149.69c.18.57.54,1.53,1.82,1.13s5.98-4.32,7-4.93,2.18-1.61,1.97-2.78-1.08-1.99-2.82-1.81-2.76-1.22-4.29.21-1.51.67-2.59,4.42l-1.08,3.74Z"/>
        <path class="cls-4" d="m68.67,137.47c1-.84,2.28-.76,3.43-.15s1.97.2,2.5,1.12,1.46,2.45.38,2.68-1.56-.71-2.74-.94-1.08.43-2.35-.33-2.12,0-1.92-.95.71-1.43.71-1.43Z"/>
        <path class="cls-4" d="m69.31,136.45c.46-.69,1.2-1.85,2.51-1.15s1.4,1.37,2.1,1.22,1.17-1,.9-1.86.48-1.12-.66-2.32-2.04-2.59-3.05-1.91-2.35.77-1.95,2.63.15,2.51.1,3.01.07.46.07.46"/>
      </g>
      <g>
        <path class="cls-4" d="m56.24,48.05c1.29-.24,3.15-.45,4.21-.4l-.08,2.61c-1.02-.1-2.92-.01-4.28.17l.14-2.38Zm2.54,5.12c1.37-.27,3.35-.54,4.48-.49v2.64c-1.08-.14-3.08.03-4.53.25l.05-2.4Zm6.51-12.64l.92,1.21,4.23-3.24,1.14,1.48-4.23,3.24.55.72,3.76-2.88,1.07,1.4-3.76,2.88.56.73,4.96-3.8,1.15,1.5-11.81,9.05-1.15-1.5,4.77-3.65-.56-.73-3.65,2.8-1.07-1.4,3.65-2.8-.55-.72-4.12,3.16-1.14-1.48,4.12-3.16-.92-1.21,2.08-1.59Zm-1.13,15.61l2.63-.07c.74,2.37,1.39,5,1.9,7.33l-2.86.25c-.28-1.92-.92-4.89-1.67-7.51Zm10.62-10.63l5.12,6.69c.7.91.93,1.54.49,2.31-.38.77-1.24,1.45-2.48,2.37-.46-.45-1.29-1.03-1.92-1.35.76-.5,1.58-1.16,1.81-1.33.23-.17.26-.31.1-.52l-.44-.58-5.24,4.01,2.01,2.62-1.94,1.49-6.66-8.7,9.16-7.01Zm-.18,3.85l-.62-.8-5.24,4.01.62.8,5.24-4.01Zm-3.5,6.29l5.24-4.01-.66-.86-5.24,4.01.66.86Z"/>
        <path class="cls-4" d="m82.04,31.88c-.16,1.11-.43,2.26-.77,3.39l3.09,7.03-2.4,1.05-2.04-4.63c-.35.78-.76,1.49-1.17,2.15-.59-.29-1.85-.87-2.54-1.07,1.59-2.17,2.85-5.1,3.19-7.73l2.63-.2Zm5.6,11.63l-.99-2.26,2.58-1.13.99,2.26,7.92-3.48,1.02,2.32-7.92,3.48,1.78,4.05-2.58,1.13-1.78-4.05-7.86,3.46-1.02-2.32,7.86-3.46Zm-1.26-14.06l1.25,2.84c1.29-1.39,2.4-2.74,3.16-4.01l2.55,1.14c-1.21,1.78-2.86,3.54-4.66,5.25l.64,1.45c.33.75.49.79,1.3.44.36-.16,1.93-.85,2.38-1.05.67-.29.66-.7,0-2.45.66.14,1.79.08,2.5-.04.86,2.6.53,3.61-1.4,4.46-.5.22-2.42,1.06-2.92,1.29-2.4,1.05-3.31.67-4.29-1.55l-.3-.68c-.76.62-1.5,1.24-2.25,1.83-.39-.5-1.14-1.18-1.69-1.54,1-.8,1.99-1.65,2.95-2.53l-1.66-3.77,2.44-1.07Z"/>
        <path class="cls-4" d="m108.34,23c.29,1.8.62,3.8.77,5.87l8.56-1.51.47,2.69-7.67,1.35c2.2,3.97,5.42,6.93,9.78,7.86-.55.68-1.21,1.98-1.5,2.79-4.26-1.13-7.34-3.87-9.77-7.8-.55,3.85-2.3,7.64-6.52,10.66-.53-.62-1.48-1.42-2.34-1.85,4.59-3.11,6.02-7.05,6.23-10.95l-7.5,1.32-.47-2.69,7.93-1.4c-.14-2.08-.52-4.09-.81-5.87l2.84-.5Z"/>
        <path class="cls-4" d="m132.02,31.71l-6.96-.44.14-2.28,9.95.62.56-.1,1.59,1.42c-1.42,1.15-3.27,2.24-5.22,3.02l-.03.42,8.56.54-.15,2.42-8.56-.54-.18,2.83c-.09,1.36-.46,2.02-1.54,2.33-1.05.31-2.44.27-4.31.15-.13-.76-.57-1.89-.92-2.61,1.4.15,3.03.26,3.49.26.44.03.56-.08.57-.36l.17-2.77-8.39-.52.15-2.42,8.39.52.09-1.38c.85-.28,1.76-.68,2.58-1.12Zm-.14-10.04c.67,1.01,1.31,2.37,1.54,3.29l-1.33.42,2.88.18c.77-.99,1.59-2.24,2.1-3.22l2.67,1c-.65.82-1.34,1.66-2,2.39l3.21.2-.3,4.85-2.59-.16.16-2.52-14.08-.88-.16,2.52-2.46-.15.3-4.85,3.36.21c-.35-.77-.89-1.66-1.39-2.38l2.3-.85c.71.9,1.52,2.15,1.82,3l-.86.34,3.71.23c-.25-.88-.76-2.01-1.25-2.9l2.38-.73Z"/>
        <path class="cls-4" d="m150.75,27.09l3.41,1.17.14,8.14c.01,1.05-.05,2.17-.07,3.25l.1.04c.67-.86,1.29-1.79,1.92-2.62l5.06-6.36,3.41,1.17-5.28,15.42-2.81-.96,2.2-6.43c.51-1.48,1.46-3.52,2.13-4.92l-.1-.04-2.49,3.19-4.59,5.66-1.77-.61-.18-7.29v-4.04s-.07-.03-.07-.03c-.35,1.51-.83,3.72-1.34,5.19l-2.2,6.43-2.77-.95,5.28-15.42Z"/>
        <path class="cls-4" d="m169.61,34.25l4.7,2.64c2.92,1.64,4.66,3.75,3.17,6.4-.74,1.32-2.21,2.24-3.67,2l-.04.08c1.33,1.23,1.83,2.94.76,4.84-1.6,2.86-4.71,2.86-7.83,1.1l-5.06-2.84,7.98-14.21Zm-1.94,14.73c1.92,1.08,3.36.98,4.19-.5.78-1.38.09-2.55-1.86-3.65l-1.98-1.11-2.33,4.14,1.98,1.11Zm3.19-6.41c1.8,1.01,2.98.71,3.61-.42.7-1.25.14-2.22-1.57-3.18l-1.69-.95-2.03,3.61,1.67.94Z"/>
        <path class="cls-4" d="m185.83,44.39l3.03,2.38-5.97,16.04-2.7-2.12,1.68-3.99-4.14-3.25-3.48,2.58-2.6-2.04,14.18-9.6Zm-2.93,9.9l.72-1.7c.65-1.65,1.47-3.4,2.17-5.07l-.07-.05c-1.45,1.13-2.95,2.3-4.38,3.33l-1.48,1.1,3.05,2.39Z"/>
      </g>
      <g>
        <path class="cls-4" d="m74.24,71.67l-1.89,1.76-.8-.86,4.82-4.5.8.86-1.9,1.77,5.23,5.61-1.04.97-5.23-5.61Z"/>
        <path class="cls-4" d="m78.16,66.59l1.12-.82,2.13,2.91,3.05-2.23-2.13-2.91,1.12-.82,5.23,7.13-1.12.82-2.38-3.24-3.05,2.23,2.38,3.24-1.12.82-5.23-7.13Z"/>
        <path class="cls-4" d="m88.53,65.44l-2.44-4.42,1.22-.67,2.48,4.5c.97,1.75,1.97,1.94,2.94,1.41.98-.54,1.38-1.5.41-3.25l-2.48-4.5,1.18-.65,2.44,4.42c1.39,2.52.75,4.1-.96,5.05s-3.4.64-4.79-1.88Z"/>
        <path class="cls-4" d="m97.49,55.32l1.53-.51,2.95,3.73c.38.48.75,1,1.12,1.5l.06-.02c0-.62-.02-1.26-.02-1.87l.08-4.75,1.54-.52,2.82,8.39-1.23.41-1.39-4.14c-.25-.75-.51-1.87-.69-2.66l-.06.02-.02,2.16-.11,4.48-.82.27-2.81-3.5-1.32-1.71-.05.02c.33.74.8,1.78,1.05,2.53l1.39,4.14-1.2.4-2.82-8.39Z"/>
        <path class="cls-4" d="m107.83,52.13l2.7-.53c1.77-.34,3.16-.02,3.47,1.54.16.84-.13,1.71-.87,2.13v.06c1.04,0,1.89.55,2.12,1.73.33,1.72-.89,2.82-2.83,3.19l-2.9.57-1.7-8.68Zm3.24,3.13c1.32-.26,1.78-.86,1.62-1.67-.17-.9-.85-1.13-2.08-.89l-1.2.23.5,2.56,1.17-.23Zm.99,3.94c1.35-.26,2.04-.9,1.83-1.96-.19-.97-1.03-1.25-2.41-.99l-1.38.27.58,2.95,1.38-.27Z"/>
        <path class="cls-4" d="m118.23,50.5l1.6-.13,3.62,8.58-1.47.12-.94-2.44-3.06.24-.54,2.56-1.42.11,2.22-9.05Zm2.39,5.06l-.44-1.16c-.36-.93-.7-1.89-1.06-2.86h-.05c-.18,1.03-.38,2.02-.59,3l-.25,1.21,2.39-.19Z"/>
        <path class="cls-4" d="m127.59,50.2l5.21.34-.08,1.17-3.82-.25-.16,2.46,3.23.21-.08,1.17-3.23-.21-.19,2.84,3.95.26-.08,1.19-5.34-.35.58-8.83Z"/>
        <path class="cls-4" d="m135.28,50.89l1.38.2-1.29,8.75-1.38-.2,1.29-8.75Z"/>
        <path class="cls-4" d="m140.74,56.33c.77-2.76,2.93-3.95,5.09-3.35,1.05.29,1.74,1.03,2.11,1.74l-.95.66c-.33-.56-.77-1.04-1.45-1.23-1.47-.41-2.84.53-3.39,2.53-.56,2.01.05,3.53,1.55,3.94.77.22,1.46.02,2.13-.39l.49,1.06c-.92.6-1.89.81-3,.5-2.14-.59-3.34-2.66-2.57-5.46Z"/>
        <path class="cls-4" d="m150.51,54.63l1.29.51-2.83,7.11,3.48,1.38-.44,1.1-4.77-1.9,3.26-8.22Z"/>
        <path class="cls-4" d="m154.57,61.73l2.36-4.47,1.23.65-2.4,4.54c-.94,1.77-.54,2.72.44,3.23.99.52,2.01.33,2.95-1.44l2.4-4.54,1.19.63-2.36,4.47c-1.34,2.55-3.02,2.89-4.75,1.97-1.73-.91-2.4-2.49-1.06-5.04Z"/>
        <path class="cls-4" d="m165.37,61.97l2.25,1.57c1.48,1.03,2.21,2.26,1.31,3.56-.49.7-1.32,1.1-2.13.86l-.03.05c.71.74.91,1.73.23,2.72-1,1.44-2.64,1.32-4.26.19l-2.42-1.69,5.05-7.25Zm-2.13,7.95c1.13.79,2.06.84,2.68-.05.56-.81.19-1.61-.97-2.41l-1.15-.8-1.71,2.46,1.15.8Zm2.14-3.45c1.1.77,1.85.68,2.33,0,.52-.75.21-1.4-.81-2.11l-1-.7-1.49,2.14.97.68Z"/>
      </g>
      <g>
        <path class="cls-4" d="m83.42,198.87l-7.01,10.4,2.79,1.88-1.32,1.95-4.58-3.09c1.26,1.99,2.54,4.18,3.25,5.61l-2.89.39c-.68-1.63-2.03-4.23-3.44-6.43l1.82-.42-5.55-3.74.83,2.15c-2.17.07-5.21-.3-7.47-.89-.09-.7-.32-1.89-.55-2.65,2.03.57,4.66.92,6.44.89l-4.54-3.06,1.32-1.95,2.86,1.93,7.01-10.4,11.02,7.43Zm-9.22,8.92l.71-1.06-6.7-4.51-.71,1.06,6.7,4.51Zm-4.94-7.12l6.7,4.51.68-1-6.7-4.51-.68,1Zm1.72-2.55l6.7,4.51.65-.97-6.7-4.51-.65.97Zm8.39,2l.66-.99-6.7-4.52-.67.99,6.7,4.51Z"/>
        <path class="cls-4" d="m84.73,211.96l3.58-9.37,4.3,1.64c.53-.58,1.03-1.21,1.4-1.75l2.78,1.42c-.51.47-1.04.92-1.55,1.34l5.2,1.99-2.46,6.43c.7-.42,1.37-.87,2.03-1.37l1.76,1.8c-1.58,1.18-3.29,2.13-5.07,2.92l-1.76,4.6c-.52,1.36-1.07,1.93-2.09,2.01-1.03.05-2.34-.4-4.32-1.16.18-.71.21-1.97.13-2.75,1.27.56,2.71,1.11,3.12,1.26.42.14.61.07.75-.3l.96-2.51c-4.25,1.27-8.86,1.61-13.56,1.27-.1-.65-.47-1.92-.74-2.57,3.86.44,7.62.34,11.08-.34l-9-3.44.82-2.14,2.63,1Zm2.95-.38l-.5,1.32,6.84,2.61.57-.2.36-.95-7.28-2.78Zm1.15-3l-.47,1.23,7.28,2.78.47-1.23-7.28-2.78Zm8.4-.16l-7.28-2.78-.45,1.17,7.28,2.78.45-1.17Z"/>
        <path class="cls-4" d="m108.16,207.31c-.17.42-.38.84-.61,1.25l5.43.74-.27,2.03-2.83-.38-.13.98-.08.43,3.38.46-.28,2.05-3.62-.49c.88.58,2.89,2.12,3.4,2.59l-2.08,1.41c-.56-.63-1.64-1.69-2.52-2.52-.94,1.03-2.35,1.95-4.46,2.59-.28-.57-.91-1.46-1.42-1.97,2.34-.55,3.6-1.49,4.31-2.48l-3.64-.49.28-2.05,1.48.2c-.48-.42-1.14-.93-1.55-1.19,1.28-.89,2.32-2.37,2.98-3.95l2.25.79Zm11.24,12.6l-1.25,9.22-2.68-.36.09-.7-9.05-1.22-.1.72-2.55-.35,1.25-9.24,14.28,1.93Zm-13.11-9.46c-.4.48-.79.91-1.2,1.28l2.07.28.09-.48.13-.94-1.09-.15Zm.51,14.3l9.05,1.22.17-1.26-9.05-1.23-.17,1.26Zm9.48-1.94l.17-1.22-9.05-1.22-.17,1.22,9.05,1.23Zm6.3-12.27l-1.12,8.31-8.35-1.13,1.12-8.31,8.35,1.13Zm-6.72,5.19l3.31.45.5-3.71-3.31-.45-.5,3.71Z"/>
        <path class="cls-4" d="m123.23,213.45c.34-.12.66-.48.97-.97.31-.45,1.2-2.12,1.66-3.78l2.87.46c-.52,1.31-1.28,2.68-2.03,3.84l3.2-.52c-.39-.63-.82-1.25-1.25-1.78l2.16-1.04c1.17,1.4,2.45,3.27,2.95,4.61l-2.3,1.16c-.12-.32-.28-.68-.47-1.06-5.24.95-6.1,1.18-6.65,1.46-.18-.54-.74-1.72-1.1-2.37Zm9.57,2.65l.93,9.99c.1,1.14-.05,1.82-.76,2.26-.71.49-1.71.6-3.03.72-.2-.67-.68-1.66-1.07-2.24.79-.03,1.65-.13,1.93-.18.28-.03.34-.1.32-.36l-.14-1.47-3.27.3.38,4.14-2.43.22-1.17-12.62,8.3-.77Zm-5.67,2.69l.11,1.16,3.26-.3-.11-1.16-3.26.3Zm.41,4.38l3.27-.3-.12-1.27-3.26.3.12,1.27Zm14.81-12.64c-1.61.97-3.6,1.88-5.48,2.61l.12,1.31c.07.77.21.87,1.04.79.35-.03,1.95-.18,2.41-.22.7-.06.82-.41.73-2.37.56.37,1.65.66,2.39.75-.02,2.85-.65,3.71-2.67,3.89-.55.05-2.5.23-3.02.28-2.56.24-3.25-.45-3.47-2.86l-.61-6.62,2.58-.24.29,3.15c1.44-.71,2.84-1.52,3.84-2.23l1.84,1.75Zm1.13,9.86c-1.6,1.08-3.7,2.07-5.64,2.86l.16,1.75c.07.79.24.88,1.07.81.37-.03,2.02-.19,2.48-.23.77-.07.86-.48.76-2.75.59.36,1.67.66,2.41.77,0,3.12-.62,4.06-2.72,4.25-.55.05-2.56.24-3.09.29-2.56.24-3.29-.47-3.51-2.88l-.64-6.92,2.61-.24.27,2.96c1.5-.76,2.94-1.64,3.93-2.44l1.91,1.77Z"/>
        <path class="cls-4" d="m148.48,206.07c-.07,1.6-.28,3.29-.56,4.94l4.81,14.49-2.4.8-3.56-10.73c-.26.76-.53,1.48-.84,2.13-.45-.52-1.58-1.68-2.2-2.15,1.25-2.52,2.08-6.09,2.16-9.43l2.6-.05Zm11.14-3.72l3.97,11.96,1.57-.52.73,2.19-3.72,1.23c1.7.43,3.77,1.09,4.93,1.66l-1.14,2.3c-1.18-.68-3.59-1.52-5.38-2.04l.88-1.68-4.87,1.61,1.94.61c-.75,1.87-2.11,3.76-3.53,5.14-.53-.4-1.46-.98-2.14-1.28,1.28-1.19,2.47-2.83,3.15-4.27l-4.05,1.34-.73-2.19,1.94-.64-3.97-11.96,10.42-3.46Zm-1.45,4l-.39-1.19-5.53,1.83.4,1.19,5.53-1.83Zm-4.57,4.74l5.53-1.84-.4-1.21-5.53,1.84.4,1.21Zm.98,2.94l5.53-1.83-.42-1.25-5.53,1.83.42,1.25Zm6.51,1.11l-.42-1.27-5.53,1.83.42,1.27,5.53-1.84Z"/>
        <path class="cls-4" d="m165.57,208.76c.24-.33.17-.85-.07-1.63-.24-.73-1.31-3.45-2.68-5.68,4.38-2.79,9.19-6.22,12.01-8.9l2.4,1.34c-2.83,2.66-7.02,5.67-10.94,8.2.72,1.47,1.31,3.07,1.79,4.45l4.18-2.56-1.99-3.24,2.33-1.42,1.99,3.24,6.43-3.94,1.39,2.27-6.43,3.94,3.3,5.38c.75,1.22.88,1.99.31,2.83-.56.86-1.67,1.62-3.25,2.56-.5-.57-1.46-1.37-2.17-1.82,1.05-.59,2.19-1.31,2.54-1.53.32-.19.4-.35.22-.65l-3.28-5.34-3.88,2.38c-1.11.68-2.14,1.44-2.18,1.75-.42-.39-1.41-1.2-2.01-1.6Zm6.81.76c.07,2.43-.23,5.43-.67,7.45-.67-.13-2.02-.23-2.75-.23.57-1.89.89-4.52.79-6.62l2.62-.6Zm8.03-5.88c2.1.73,4.86,1.79,6.39,2.69l-1.54,2.28c-1.43-.9-4.17-2.14-6.33-2.96l1.47-2.01Z"/>
        <path class="cls-4" d="m180.81,186.93c.85.3,1.88.74,2.59,1.12l2.65-2.61,1.65,1.68-1.82,1.79,1.55-.97c.43,1.09.9,2.23,1.25,3.21l1.88-1.85,1.67,1.69-8.33,8.22-1.67-1.69,2.02-1.99c-.77-.5-1.98-1.07-2.99-1.41l.98-1.61-2.11,2.08-1.65-1.68,2.98-2.94c-.59-.32-1.29-.65-1.86-.88l1.23-2.17Zm4.87,6.63l-.72,1.27,1.94-1.91c-.4-1.09-1.04-2.43-1.61-3.42l-2.69,2.66c1.1.33,2.33.92,3.09,1.41Zm7.05-.84l5.76,5.84-1.86,1.84-.62-.63-3.38,3.34.7.71-1.75,1.73-5.84-5.92,7-6.91Zm-2.69-13.17l.19-.34,2.12-.48c.97,2.04,2.08,4.49,2.83,6.45,2.66.16,4.13,1.18,5.13,2.2,1.11,1.13,1.62,2.14,1.44,3.12-.07.5-.32.96-.68,1.41-.3.39-.72.84-1.16,1.24-.51-.46-1.41-1.08-2.18-1.31.39-.29.69-.59.94-.83.19-.22.35-.46.41-.71.11-.42-.18-.9-.71-1.44-.85-.86-2.29-1.66-4.72-1.74-.69-1.58-1.76-3.67-2.61-5.21l-1.74,1.72,12.02,12.19-1.66,1.64-13.69-13.88,4.06-4Zm4.36,18.59l-1.88-1.91-3.38,3.34,1.88,1.91,3.38-3.34Z"/>
      </g>
      <path class="cls-4" d="m125,205.07c-18.11,0-35.85-6.21-49.95-17.49l1.44-1.8c13.89,11.11,30.67,16.99,48.51,16.99,23.77,0,45.92-10.66,60.78-29.25l1.8,1.44c-15.3,19.14-38.11,30.11-62.58,30.11Z"/>
      <path class="cls-4" d="m69.63,70.39l-1.64-1.62c15.16-15.38,35.41-23.84,57-23.84s40.12,7.78,55.04,21.92l-1.58,1.67c-14.5-13.73-33.48-21.29-53.46-21.29-20.97,0-40.63,8.22-55.36,23.16Z"/>
      <path class="cls-1" d="m250,125.79c0-2.95-.91-6.27-.91-6.27,0,0,.62-2.27.45-4.61-.2-2.68-1.2-5.49-1.2-5.49,0,0,.36-3.11-.09-5.79-.51-3.03-1.85-5.66-1.85-5.66,0,0,.31-2.4-.37-4.92-.7-2.62-2.38-5.36-2.38-5.36,0,0,.07-2.41-.82-4.86-.95-2.65-2.88-5.36-2.88-5.36,0,0-.07-2.45-1.11-4.73-1.2-2.66-3.4-5.21-3.4-5.21,0,0-.3-2.31-1.36-4.18-1.54-2.7-4.02-5.27-4.02-5.27,0,0-.63-2.25-2.1-4.32-1.8-2.51-4.49-4.93-4.49-4.93,0,0-.25-1.54-1.64-3.22-1.89-2.28-5.08-4.89-5.08-4.89,0,0-.93-2.03-2.75-3.81-1.94-1.87-4.76-3.49-4.76-3.49-1.14-2.24-2.81-3.74-4.23-4.73-1.43-.98-4.38-2.37-4.38-2.37,0,0-.89-1.77-2.81-3.11-2.33-1.63-5.76-2.88-5.76-2.88-1.19-1.66-2.38-2.47-4.37-3.62-1.98-1.16-4.31-1.57-4.67-1.76-.37-.19-1.83-1.64-3.85-2.77-2.03-1.13-6.18-1.93-6.18-1.93,0,0-1.72-1.67-4.11-2.51-2.72-.96-6.16-1.11-6.16-1.11,0,0-1.48-1.47-3.77-2.08-2.82-.74-6.57-.64-6.57-.64,0,0-1.81-1.38-4.35-1.91-2.89-.61-6.55-.37-6.55-.37,0,0-2.43-1.13-4.96-1.34-2.78-.24-5.67.45-5.67.45,0,0-2.11-.69-4.65-.73-2.82-.03-6.08.59-6.08.59,0,0-2.67-.52-5.21-.29-2.78.25-5.43,1.25-5.43,1.25,0,0-2.88-.38-5.33.05-2.96.52-5.57,1.87-5.57,1.87,0,0-2.71-.16-5.07.48-2.81.76-5.34,2.33-5.34,2.33,0,0-2.84.06-5.34.99-2.67.99-4.99,2.88-4.99,2.88,0,0-2.31-.19-4.67.88-2.49,1.14-5.03,3.53-5.03,3.53,0,0-2.29.19-4.42,1.38-2.66,1.49-5.28,4.05-5.28,4.05,0,0-2.3.75-4.3,2.14-2.39,1.69-4.54,4.05-4.54,4.05,0,0-2.07.62-3.92,2.14-2.19,1.81-4.22,4.56-4.22,4.56,0,0-2.37,1.07-4.31,3-2.05,2.04-3.67,4.97-3.67,4.97,0,0-2.04,1.18-3.66,3.1-1.68,1.98-2.95,4.71-2.95,4.71,0,0-2.29,1.71-3.82,3.87-1.68,2.36-2.6,5.2-2.6,5.2,0,0-1.95,1.75-3.29,4.07-1.47,2.55-2.33,5.7-2.33,5.7,0,0-1.8,1.64-2.88,3.87-1.19,2.5-1.68,5.63-1.68,5.63,0,0-1.64,1.96-2.52,4.35-.96,2.6-1.18,5.63-1.18,5.63,0,0-1.55,2.18-2.19,4.67-.72,2.8-.56,5.95-.56,5.95,0,0-1.37,2.07-1.89,4.7-.54,2.73-.22,6.02-.22,6.02,0,0-1.05,2.48-1.29,5.08-.25,2.68.33,5.47.33,5.47,0,0-.76,2.83-.78,5.6-.03,2.81.7,5.57.7,5.57,0,0-.64,2.67-.39,5.35.27,2.76,1.43,5.53,1.43,5.53,0,0-.51,2.43-.07,4.98.48,2.76,1.9,5.67,1.9,5.67,0,0-.14,2.79.49,5.14.74,2.72,2.28,5.07,2.28,5.07,0,0-.07,2.72.75,5.07,1.01,2.9,2.98,5.55,2.98,5.55,0,0,.04,2.36,1.03,4.48,1.25,2.68,3.52,5.24,3.52,5.24,0,0,.19,2.36,1.36,4.45,1.48,2.64,4.01,5.14,4.01,5.14,0,0,.45,2.42,1.86,4.39,1.64,2.29,4.27,4.2,4.27,4.2,0,0,.63,2.26,2.07,4.04,1.99,2.43,5.01,4.58,5.01,4.58,0,0,.71,1.88,2.29,3.45,2.11,2.09,5.25,4.03,5.25,4.03,0,0,.98,1.91,2.81,3.4,2.33,1.91,5.66,3.52,5.66,3.52,0,0,1.33,2.05,3.18,3.34,2.34,1.63,5.32,2.56,5.32,2.56,0,0,1.47,2.06,3.68,3.38,2.64,1.59,6.09,2.48,6.09,2.48,0,0,1.8,1.77,3.93,2.74,2.69,1.24,5.84,1.76,5.84,1.76,0,0,1.85,1.69,4.26,2.54,2.69.95,5.97,1.07,5.97,1.07,0,0,1.76,1.55,4.08,2.19,2.89.81,6.44.75,6.44.75,0,0,1.65,1.32,3.77,1.7,3.02.53,6.83.18,6.83.18,0,0,1.96,1.16,4.34,1.38,2.95.28,6.41-.38,6.41-.38,0,0,2.08.95,4.62.99,2.8.04,6.08-.84,6.08-.84,0,0,2.77.6,5.25.37,2.88-.27,5.54-1.36,5.54-1.36,0,0,2.47.59,4.89.15,2.91-.53,5.85-2.11,5.85-2.11,0,0,2.27.38,4.45-.19,2.96-.8,6.07-2.61,6.07-2.61.12,0,2.71,0,4.96-.85,2.69-1,5.07-2.91,5.07-2.91,0,0,2.4-.03,4.74-1.11,2.6-1.2,5.14-3.45,5.14-3.45,0,0,2.37-.28,4.45-1.49,2.58-1.49,4.98-3.97,4.98-3.97,0,0,2.41-.62,4.21-1.89,2.51-1.79,4.67-4.41,4.67-4.41,0,0,2.36-.73,4.22-2.24,2.23-1.82,4.04-4.46,4.04-4.46,0,0,2.32-1.05,4.06-2.77,2.11-2.11,3.73-4.97,3.73-4.97,0,0,2.1-1.22,3.78-3.21,1.83-2.16,3.24-5.12,3.24-5.12,0,0,2.05-1.38,3.4-3.31,1.67-2.34,2.67-5.31,2.67-5.31,0,0,1.91-1.52,3.17-3.68,1.55-2.67,2.49-6.08,2.49-6.08,0,0,1.74-1.6,2.74-3.78,1.26-2.72,1.86-6.14,1.86-6.14,0,0,1.61-1.61,2.45-3.92.87-2.42.98-5.56.98-5.56,0,0,1.59-2.19,2.29-4.74.81-2.98.76-6.39.76-6.39,0,0,1.32-1.65,1.74-3.97.54-2.93.21-6.65.21-6.65,0,0,1.05-2.04,1.28-4.67.26-2.81-.31-6.2-.31-6.2,0,0,.88-2.07.87-4.35Zm-3.35-14.54c1.25,2.2,1.15,5.37.08,7.63-1.06,2.25-5.98,4.31-6.79,4.64-.81.34-1.81,1.2-1.81,1.2-.64-1.51-.53-3.13-.5-5.2.03-2.08,5.01-5.25,6.43-6.09,1.43-.85,2.58-2.18,2.58-2.18Zm-.91-3.07c-.86,2.32-5.58,4.8-6.36,5.21-.77.41-1.69,1.35-1.69,1.35-.77-1.44-.79-3.07-.95-5.13-.16-2.08,4.51-5.66,5.84-6.63,1.35-.97,2.38-2.4,2.38-2.4,1.44,2.08,1.63,5.24.77,7.6Zm-25.29-33.72c-3.97,2.37-11.31,6.76-12.39,7.57-1.21.9-6.2,3.27-9.34,4.63-3.11,1.35-3.81,4.74-4.38,7.47l-.12.58c-.16.77-.3,1.71-.46,2.81-.4,2.74-.95,6.49-2.33,9.92-1.16,2.9-4.4,7.39-9.62,13.35l-.34.39c-.56.65-1.65,2.42-3.37,5.25-1.39,2.29-3.13,5.14-3.7,5.75-.55.59-1.87.38-3.9-.63-.09-.04-.36-.34-.59-1.18-.53-1.96-.31-4.92.26-5.79.49-.75,1.2-1.46,1.9-2.16.85-.85,1.65-1.65,2.14-2.57.75-1.43,4.72-7.51,4.76-7.58l.14-.21.04-.25c.42-2.74.02-4.65-1.2-5.84-1.02-.99-2.47-1.35-4.26-1.35-1.97,0-4.36.43-7.04.92l-.1.02c-5.48,1-14.12,8.46-19.84,13.41-.64.55-1.23,1.06-1.77,1.52-5.08,4.34-10.46,5.21-12.27,4.95-1.56-.22-3.65-.86-4.69-2.64-.05-.08-.05-.12-.03-.18.26-.89,2.6-2.12,3.42-2.55.49-.26.97-.52,1.46-.79,1.4-.77,2.85-1.57,4.97-2.45,1.33-.55,3.58-2.13,5.73-3.76l-.07.11,1.39-1.12c2.27-1.77,4.17-3.36,4.33-3.5h.01s16.41-13.29,16.41-13.29c.49-.4.57-1.12.17-1.62-.4-.49-1.12-.57-1.62-.17l-11.01,8.91c1.37-3.11,2.68-8.3,2.91-9.56.11-.63-.31-1.22-.93-1.33-.63-.12-1.22.31-1.33.93-.31,1.75-2.16,8.5-3.4,10.3-.87,1.25-1.75,2.57-2.31,3.42-.83-.49-1.55-1-1.86-1.3.11-.51.42-1.58.67-2.39.49-1.66.81-2.8.96-3.6h0c.33-1.61.75-2.92,1.14-3.49.8-1.18,4.52-8.1,5.05-9.47.23-.59-.07-1.26-.66-1.49-.59-.23-1.26.07-1.49.66-.43,1.11-4.02,7.84-4.81,9.01-.16.24-.31.52-.45.83-.16-.31-.29-.6-.29-.72.31-.92,4.43-9.73,6.03-13.04.78-1.6,1.89-1.8,3.65-2,.49-.06.99-.11,1.48-.22.47-.11,1.28-.25,2.32-.44,3.18-.57,8.51-1.52,12.76-2.92,3.95-1.31,7.01-3.01,10.25-4.81,1.46-.81,2.98-1.66,4.67-2.53,4.33-2.22,13.26-11.25,17.51-15.68,6.1,6.72,11.26,14.08,15.43,21.93Zm-33.99-8.3c-1.73.89-3.26,1.74-4.75,2.56-3.28,1.82-6.11,3.4-9.85,4.64-4.09,1.35-9.32,2.28-12.44,2.84-1.09.19-1.94.35-2.43.46-.36.08-.78.13-1.23.18-1.73.2-4.1.46-5.46,3.29-1.28,2.64-5.75,12.13-6.14,13.32-.37,1.1.27,2.25.9,3.36.22.4.56,1,.58,1.19,0,.08-.02.21-.04.37,0,.02,0,.03-.01.05h0c-.15.8-.61,2.36-.91,3.37-.61,2.07-.82,2.84-.79,3.34.02.37.06,1.16,2.55,2.7-2.78,2.28-7.59,6.05-9.51,6.86-2.23.93-3.81,1.8-5.19,2.56-.48.26-.95.52-1.47.79-1.93,1.01-4.03,2.23-4.52,3.93-.19.68-.11,1.36.25,1.98,1.19,2.03,3.38,3.33,6.35,3.75,2.54.36,8.62-.8,14.09-5.48.54-.46,1.14-.98,1.78-1.53,5.19-4.49,13.88-12,18.75-12.88l.1-.02c4.28-.78,7.98-1.45,9.28-.18.62.6.81,1.81.56,3.6-.73,1.12-4,6.17-4.73,7.54-.33.62-1.01,1.3-1.73,2.02-.78.78-1.58,1.58-2.2,2.53-1.06,1.63-1.16,5.39-.55,7.65.37,1.34.97,2.23,1.79,2.64.8.4,2.43,1.21,4.03,1.21.93,0,1.85-.27,2.58-1.06.68-.73,2.02-2.9,3.98-6.13,1.25-2.06,2.67-4.39,3.14-4.94l.33-.38c5.39-6.15,8.77-10.87,10.03-14.01,1.48-3.69,2.05-7.59,2.47-10.45.15-1.06.29-1.97.44-2.66l.12-.59c.5-2.43,1.03-4.95,3.04-5.82,2.52-1.09,8.24-3.73,9.8-4.9.91-.68,7.64-4.72,12.08-7.37,7.48,14.86,11.44,31.37,11.44,48.49,0,28.83-11.23,55.94-31.62,76.33-20.39,20.39-47.5,31.62-76.33,31.62s-55.94-11.23-76.33-31.62c-20.39-20.39-31.62-47.5-31.62-76.33s11.23-55.94,31.62-76.33,47.5-31.62,76.33-31.62,55.94,11.23,76.33,31.62c.72.72,1.42,1.44,2.11,2.17-4.14,4.32-12.97,13.27-16.99,15.32Zm57.48,31.65c-.65,2.39-5.12,5.28-5.85,5.75-.74.48-1.56,1.5-1.56,1.5-.9-1.38-1.08-2.99-1.42-5.04-.35-2.05,3.99-6.02,5.23-7.11,1.26-1.08,2.15-2.59,2.15-2.59,1.63,1.94,2.09,5.08,1.45,7.49Zm-4.9-17.73c1.82,1.79,2.6,4.85,2.19,7.32-.39,2.44-4.55,5.75-5.24,6.3-.68.55-1.4,1.65-1.4,1.65-1.03-1.28-1.37-2.87-1.91-4.87-.56-2.01,3.35-6.4,4.48-7.6,1.13-1.2,1.88-2.8,1.88-2.8Zm-4.25-9.69c1.91,1.66,2.9,4.67,2.66,7.16-.24,2.47-4.18,6.03-4.83,6.62s-1.29,1.73-1.29,1.73c-1.1-1.21-1.56-2.78-2.22-4.73-.68-1.98,2.95-6.6,3.99-7.87,1.05-1.27,1.7-2.91,1.7-2.91Zm-6.53-6.49c.94-1.36,1.45-3.05,1.45-3.05,2.05,1.5,3.28,4.42,3.25,6.91-.02,2.48-3.66,6.36-4.27,6.99-.6.63-1.13,1.84-1.13,1.84-1.2-1.12-1.78-2.65-2.61-4.54-.85-1.91,2.37-6.82,3.3-8.15Zm-5.63-8.62c.83-1.43,1.19-3.14,1.19-3.14,2.17,1.33,3.64,4.14,3.82,6.64.17,2.47-3.12,6.63-3.67,7.31-.54.68-.98,1.91-.98,1.91-1.29-1.02-1.99-2.49-2.99-4.32-.99-1.84,1.81-6.98,2.63-8.4Zm-5.65-11.45c2.3,1.1,4.06,3.75,4.49,6.21.44,2.44-2.4,6.91-2.87,7.65-.47.73-.78,2-.78,2-1.39-.87-2.24-2.27-3.41-3.98-1.19-1.73,1.06-7.13,1.73-8.62.67-1.51.84-3.26.84-3.26Zm-7.92-4.42c.54-1.56.59-3.31.59-3.31,2.37.91,4.35,3.41,4.98,5.82.62,2.4-1.85,7.08-2.24,7.86-.41.77-.61,2.06-.61,2.06-1.46-.76-2.42-2.08-3.74-3.7-1.31-1.63.48-7.19,1.03-8.73Zm-7.62-7c.42-1.59.32-3.34.32-3.34,2.44.72,4.59,3.07,5.43,5.42.82,2.34-1.27,7.21-1.61,8.02-.35.79-.45,2.09-.45,2.09-1.52-.64-2.58-1.88-4.02-3.39-1.45-1.52-.1-7.21.33-8.79Zm-8.42-9.56c2.5.49,4.88,2.61,5.94,4.88,1.04,2.25-.55,7.29-.81,8.12-.27.82-.24,2.12-.24,2.12-1.58-.5-2.76-1.63-4.34-2.99-1.59-1.37-.8-7.16-.55-8.77.27-1.64-.01-3.37-.01-3.37Zm-2.66-1.11c1.23,2.17.02,7.31-.18,8.16-.21.84-.08,2.14-.08,2.14-1.61-.38-2.87-1.42-4.55-2.66-1.7-1.25-1.35-7.07-1.21-8.71.13-1.64-.28-3.34-.28-3.34,2.54.3,5.07,2.23,6.3,4.4Zm-9.37-5.22c1.42,2.04.7,7.27.6,8.13-.12.86.13,2.14.13,2.14-1.64-.23-3-1.15-4.78-2.22-1.81-1.08-2.03-6.91-2.05-8.55-.02-1.65-.59-3.31-.59-3.31,2.55.06,5.26,1.75,6.7,3.81Zm-9.65-4.5c1.58,1.92,1.29,7.2,1.23,8.08-.05.86.31,2.12.31,2.12-1.65-.1-3.09-.91-4.94-1.86-1.89-.94-2.57-6.74-2.72-8.36-.15-1.65-.84-3.26-.84-3.26,2.55-.14,5.38,1.34,6.96,3.28Zm-9.87-3.51c1.73,1.8,1.88,7.07,1.9,7.95.02.86.47,2.09.47,2.09-1.64.04-3.13-.66-5.07-1.45-1.95-.79-3.12-6.52-3.4-8.12-.29-1.63-1.1-3.17-1.1-3.17,2.52-.34,5.47.9,7.21,2.71Zm-10.38-2.79c1.91,1.62,2.59,6.86,2.71,7.72.11.85.68,2.03.68,2.03-1.64.2-3.18-.35-5.21-.93-2.01-.59-3.76-6.17-4.2-7.74-.46-1.59-1.43-3.05-1.43-3.05,2.47-.61,5.53.34,7.44,1.96Zm-10.49-1.85c2.05,1.43,3.21,6.58,3.41,7.43.2.85.87,1.96.87,1.96-1.62.35-3.21-.05-5.27-.45-2.06-.41-4.34-5.8-4.92-7.32-.6-1.55-1.71-2.91-1.71-2.91,2.41-.82,5.55-.16,7.61,1.28Zm-10.51-.89c2.15,1.28,3.71,6.31,3.97,7.13.25.83,1.02,1.89,1.02,1.89-1.59.45-3.2.15-5.29-.12-2.1-.27-4.76-5.48-5.47-6.94-.71-1.49-1.93-2.77-1.93-2.77,2.34-.96,5.53-.5,7.7.8Zm-10.73-.11c2.26,1.06,4.36,5.99,4.69,6.81.34.8,1.22,1.8,1.22,1.8-1.53.63-3.16.53-5.27.5-2.11-.03-5.31-5-6.17-6.42-.86-1.42-2.2-2.58-2.2-2.58,2.22-1.25,5.43-1.16,7.73-.1Zm-10.51.97c2.37.86,4.86,5.6,5.28,6.37.42.78,1.37,1.69,1.37,1.69-1.46.77-3.11.79-5.2.95-2.11.15-5.72-4.52-6.71-5.86-.98-1.35-2.43-2.39-2.43-2.39,2.12-1.43,5.31-1.62,7.69-.75Zm-10.58,1.95c2.42.63,5.37,5.1,5.85,5.84.48.73,1.53,1.56,1.53,1.56-1.39.89-3.03,1.08-5.09,1.42-2.08.36-6.13-3.98-7.23-5.22-1.11-1.25-2.65-2.15-2.65-2.15,1.96-1.62,5.14-2.09,7.59-1.45Zm-10.13,2.81c2.47.47,5.71,4.73,6.25,5.44.53.69,1.63,1.44,1.63,1.44-1.33,1-2.95,1.29-4.98,1.78-2.05.49-6.4-3.55-7.58-4.71-1.19-1.17-2.79-1.96-2.79-1.96,1.85-1.76,4.98-2.45,7.47-1.97Zm-10.36,3.58c2.49.21,6.22,4.1,6.83,4.73.62.64,1.79,1.27,1.79,1.27-1.17,1.12-2.73,1.58-4.68,2.27-1.96.71-6.75-2.85-8.06-3.88-1.32-1.04-3-1.66-3-1.66,1.61-1.93,4.6-2.95,7.12-2.74Zm-9.47,4.73c2.5.05,6.5,3.58,7.15,4.17.66.58,1.88,1.11,1.88,1.11-1.09,1.15-2.62,1.69-4.51,2.46-1.91.79-6.94-2.35-8.32-3.26-1.39-.92-3.11-1.42-3.11-1.42,1.46-1.95,4.38-3.12,6.91-3.06Zm-9.24,5.3h0c2.5-.19,6.84,2.94,7.54,3.45.71.52,1.97.94,1.97.94-.98,1.24-2.44,1.91-4.26,2.88-1.83.97-7.13-1.68-8.6-2.45-1.48-.78-3.22-1.12-3.22-1.12,1.26-2.08,4.05-3.51,6.56-3.7Zm-8.75,6.06c2.47-.41,7.06,2.33,7.82,2.78.76.45,2.05.75,2.05.75-.86,1.33-2.26,2.13-3.98,3.25-1.73,1.12-7.25-1.04-8.79-1.69-1.55-.65-3.32-.83-3.32-.83,1.07-2.19,3.72-3.86,6.22-4.27Zm-8.25,6.92c2.43-.62,7.25,1.7,8.06,2.07.79.39,2.1.57,2.1.57-.73,1.41-2.05,2.32-3.67,3.59-1.62,1.28-7.32-.39-8.91-.89-1.59-.52-3.37-.54-3.37-.54.86-2.27,3.35-4.17,5.79-4.8Zm-7.39,7.52c2.35-.85,7.38,1,8.2,1.31.82.3,2.16.37,2.16.37-.61,1.46-1.83,2.5-3.31,3.92-1.49,1.43-7.31.29-8.95-.06-1.63-.36-3.41-.22-3.41-.22.64-2.34,2.94-4.46,5.31-5.32Zm-6.84,8.26c2.26-1.05,7.43.37,8.28.6.85.23,2.17.18,2.17.18-.47,1.51-1.58,2.66-2.94,4.19-1.36,1.55-7.27.93-8.93.71-1.66-.21-3.42.08-3.42.08.44-2.39,2.53-4.69,4.83-5.75Zm-6.07,8.68c2.17-1.24,7.44-.27,8.3-.1.88.16,2.19,0,2.19,0-.34,1.55-1.36,2.79-2.58,4.42-1.21,1.65-7.16,1.53-8.83,1.46-1.67-.08-3.4.37-3.4.37.23-2.42,2.12-4.9,4.32-6.14Zm-5.34,9.26c2.06-1.39,7.4-.81,8.27-.72.88.1,2.17-.16,2.17-.16-.21,1.56-1.14,2.87-2.22,4.59-1.1,1.75-7.03,2.07-8.7,2.11-1.67.05-3.36.62-3.36.62.05-2.43,1.75-5.05,3.84-6.45Zm-4.37,9.7c1.92-1.59,7.28-1.54,8.17-1.53.88,0,2.15-.38,2.15-.38-.06,1.58-.86,2.97-1.77,4.79-.9,1.84-6.78,2.75-8.44,2.96-1.66.22-3.28.95-3.28.95-.19-2.42,1.23-5.19,3.16-6.8Zm-3.59,9.81c1.81-1.72,7.15-2.02,8.05-2.07.87-.04,2.11-.52,2.11-.52.05,1.58-.64,3.02-1.42,4.9-.78,1.89-6.6,3.18-8.22,3.5-1.65.33-3.21,1.17-3.21,1.17-.36-2.41.87-5.26,2.7-6.98Zm-2.9,10.48c1.57-1.92,6.86-2.88,7.72-3.04.87-.16,2.03-.78,2.03-.78.25,1.56-.26,3.08-.78,5.04-.55,1.97-6.14,3.98-7.73,4.49-1.58.53-3.03,1.56-3.03,1.56-.66-2.34.19-5.33,1.79-7.27Zm-1.63,10.42c1.43-2.03,6.61-3.4,7.46-3.63.85-.23,1.97-.93,1.97-.93.37,1.53-.02,3.09-.4,5.08-.39,2.01-5.79,4.44-7.33,5.08-1.54.64-2.92,1.79-2.92,1.79-.84-2.28-.22-5.33,1.21-7.38Zm-.94,10.66c1.25-2.14,6.31-3.91,7.14-4.2s1.89-1.08,1.89-1.08c.49,1.5.23,3.08,0,5.1-.23,2.02-5.44,4.86-6.91,5.62-1.49.77-2.77,2-2.77,2-1.02-2.2-.63-5.28.63-7.45Zm.08,18.11c-1.21-2.11-1.08-5.22-.01-7.48,1.07-2.23,5.96-4.4,6.78-4.76.8-.36,1.8-1.24,1.8-1.24.61,1.47.48,3.06.43,5.09-.05,2.04-5,5.3-6.41,6.17-1.42.88-2.58,2.22-2.58,2.22Zm.98,3.09c.84-2.33,5.5-4.97,6.26-5.41.76-.43,1.66-1.4,1.66-1.4.76,1.38.79,2.99.95,5.01.15,2.03-4.44,5.76-5.76,6.78-1.32,1.01-2.34,2.46-2.34,2.46-1.42-1.98-1.6-5.09-.76-7.44Zm1.84,10.38c.68-2.38,5.16-5.32,5.88-5.8.74-.49,1.57-1.51,1.57-1.51.84,1.34.99,2.94,1.28,4.94.29,2.03-4.05,6.04-5.3,7.13-1.26,1.1-2.19,2.61-2.19,2.61-1.53-1.88-1.92-4.98-1.24-7.37Zm4.68,17.45c-1.72-1.74-2.4-4.76-1.95-7.22.45-2.43,4.6-5.77,5.3-6.33.67-.55,1.41-1.65,1.41-1.65.97,1.25,1.27,2.82,1.75,4.8.49,1.98-3.45,6.39-4.58,7.6-1.14,1.21-1.91,2.8-1.91,2.8Zm4.4,9.82c-1.87-1.59-2.8-4.54-2.56-7.03.24-2.46,4.11-6.14,4.73-6.75.64-.62,1.27-1.77,1.27-1.77,1.08,1.17,1.51,2.71,2.15,4.63.65,1.94-2.9,6.67-3.92,7.97-1.03,1.3-1.68,2.95-1.68,2.95Zm6.48,6.23c-.9,1.4-1.38,3.1-1.38,3.1-2.01-1.4-3.23-4.27-3.22-6.77,0-2.46,3.49-6.5,4.07-7.15.58-.65,1.09-1.88,1.09-1.88,1.18,1.06,1.75,2.56,2.58,4.41.84,1.87-2.23,6.88-3.14,8.28Zm5.63,8.9h0c-.78,1.47-1.12,3.2-1.12,3.2-2.11-1.24-3.57-4-3.77-6.49-.2-2.46,2.96-6.75,3.47-7.46.53-.7.93-1.95.93-1.95,1.27.96,1.96,2.42,2.95,4.2.98,1.81-1.68,7.05-2.46,8.5Zm5.55,11.66c-2.2-1.07-3.87-3.71-4.27-6.17-.4-2.44,2.4-6.96,2.87-7.71.47-.74.77-2.01.77-2.01,1.34.85,2.15,2.24,3.26,3.95,1.13,1.72-1.11,7.16-1.78,8.68-.66,1.51-.86,3.26-.86,3.26Zm8.01,4.25c-.52,1.58-.54,3.33-.54,3.33-2.29-.84-4.22-3.3-4.86-5.71-.63-2.4,1.71-7.16,2.09-7.96.39-.78.58-2.08.58-2.08,1.41.72,2.35,2.02,3.64,3.61,1.29,1.61-.4,7.24-.91,8.81Zm7.83,6.93c-.38,1.62-.22,3.37-.22,3.37-2.37-.62-4.52-2.9-5.4-5.24-.85-2.33,1.01-7.29,1.32-8.11.31-.81.37-2.12.37-2.12,1.48.59,2.54,1.8,3.98,3.26,1.43,1.46.3,7.23-.05,8.84Zm8.38,9.85c-2.49-.53-4.88-2.66-5.96-4.93-1.08-2.29.49-7.4.74-8.25.26-.84.22-2.2.22-2.2,1.62.56,2.83,1.76,4.43,3.19,1.61,1.43.8,7.26.56,8.87-.27,1.62,0,3.32,0,3.32Zm2.69,1.03c-1.26-2.19-.13-7.39.07-8.26.19-.87.05-2.21.05-2.21,1.64.42,2.95,1.52,4.66,2.83,1.73,1.3,1.41,7.17,1.28,8.8-.13,1.62.28,3.29.28,3.29-2.52-.31-5.07-2.24-6.34-4.44Zm9.21,5.36c-1.43-2.08-.7-7.37-.59-8.25.12-.88-.14-2.21-.14-2.21,1.69.3,3.08,1.29,4.89,2.46,1.82,1.16,1.97,7.04,1.97,8.67s.54,3.27.54,3.27c-2.53-.12-5.24-1.86-6.68-3.94Zm9.72,4.46c-1.64-1.93-1.45-7.27-1.41-8.15.03-.89-.36-2.19-.36-2.19,1.71.13,3.18.98,5.1,1.97,1.93.98,2.67,6.82,2.83,8.44.17,1.61.87,3.19.87,3.19-2.54.13-5.4-1.33-7.03-3.26Zm9.89,3.56c-1.79-1.81-2.02-7.14-2.06-8.02-.04-.89-.53-2.16-.53-2.16,1.71,0,3.24.73,5.25,1.56,2,.83,3.2,6.6,3.49,8.19.3,1.6,1.13,3.12,1.13,3.12-2.52.33-5.49-.9-7.28-2.7Zm10.41,2.75c-1.95-1.62-2.73-6.89-2.87-7.77-.13-.89-.74-2.1-.74-2.1,1.71-.17,3.31.41,5.39,1.03,2.06.63,3.85,6.25,4.31,7.81.45,1.56,1.43,3,1.43,3-2.47.59-5.55-.36-7.51-1.96Zm10.42,1.88c-2.08-1.48-3.23-6.68-3.43-7.55-.19-.87-.9-2.02-.9-2.02,1.69-.3,3.33.16,5.45.63,2.11.48,4.31,5.95,4.87,7.47.57,1.54,1.66,2.9,1.66,2.9-2.43.74-5.57.04-7.64-1.43Zm10.54.85c-2.19-1.28-3.81-6.38-4.08-7.23-.27-.84-1.06-1.94-1.06-1.94,1.65-.44,3.32-.12,5.48.18,2.15.3,4.8,5.56,5.5,7.03.7,1.48,1.9,2.74,1.9,2.74-2.35.95-5.54.52-7.73-.77Zm10.68,0c-2.31-1.09-4.35-6.03-4.69-6.85-.35-.82-1.24-1.86-1.24-1.86,1.61-.58,3.32-.4,5.48-.28,2.16.11,5.27,5.13,6.09,6.54s2.12,2.57,2.12,2.57c-2.25,1.15-5.47.98-7.76-.13Zm10.69-.94c-2.39-.89-4.87-5.62-5.29-6.42-.42-.79-1.4-1.73-1.4-1.73,1.55-.72,3.26-.69,5.43-.76,2.16-.09,5.71,4.64,6.67,5.97.93,1.33,2.34,2.37,2.34,2.37-2.14,1.34-5.37,1.46-7.75.57Zm10.46-1.98c-2.46-.67-5.36-5.18-5.84-5.92-.49-.75-1.55-1.62-1.55-1.62,1.48-.83,3.18-.95,5.34-1.22,2.14-.28,6.11,4.13,7.16,5.37,1.06,1.25,2.56,2.15,2.56,2.15-2.03,1.53-5.22,1.92-7.67,1.24Zm10.32-2.88c-2.53-.42-5.9-4.57-6.46-5.27-.57-.7-1.72-1.44-1.72-1.44,1.37-.99,3.06-1.3,5.17-1.8,2.11-.5,6.52,3.45,7.71,4.57,1.19,1.12,2.78,1.87,2.78,1.87-1.84,1.74-4.96,2.47-7.48,2.06Zm9.95-3.66c-2.51-.21-6.21-4.09-6.83-4.73-.62-.64-1.82-1.28-1.82-1.28,1.25-1.11,2.89-1.55,4.92-2.22,2.02-.66,6.73,2.91,8,3.93,1.28,1.03,2.9,1.64,2.9,1.64-1.65,1.88-4.65,2.87-7.17,2.67Zm9.65-4.59c-2.56-.03-6.56-3.61-7.22-4.21-.66-.6-1.91-1.15-1.91-1.15,1.2-1.2,2.81-1.77,4.81-2.58,2-.82,6.99,2.39,8.34,3.31,1.35.93,3.05,1.42,3.05,1.42-1.55,1.99-4.51,3.2-7.06,3.2Zm9.16-5.36c-2.55.25-6.9-2.9-7.63-3.42-.72-.53-2.02-.93-2.02-.93,1.05-1.33,2.6-2.05,4.5-3.08,1.9-1.03,7.21,1.65,8.66,2.42,1.44.77,3.16,1.09,3.16,1.09-1.31,2.15-4.14,3.67-6.68,3.92Zm8.71-6.01c-2.5.46-7.15-2.32-7.93-2.79-.78-.46-2.12-.76-2.12-.76.91-1.4,2.38-2.25,4.18-3.42,1.79-1.18,7.34,1.05,8.86,1.71,1.51.66,3.26.83,3.26.83-1.09,2.24-3.75,3.98-6.25,4.43Zm8.24-6.96c-2.44.68-7.34-1.66-8.16-2.04-.81-.4-2.18-.59-2.18-.59.78-1.48,2.17-2.45,3.84-3.78,1.68-1.33,7.41.39,8.99.9,1.57.52,3.32.53,3.32.53-.87,2.32-3.36,4.3-5.81,4.98Zm7.52-7.45c-2.37.91-7.47-.99-8.31-1.31-.85-.31-2.23-.37-2.23-.37.66-1.55,1.93-2.65,3.48-4.12,1.55-1.48,7.41-.28,9.03.09,1.62.38,3.36.23,3.36.23-.65,2.4-2.96,4.59-5.33,5.48Zm6.71-8.19c-2.29,1.09-7.53-.38-8.39-.62-.87-.25-2.25-.19-2.25-.19.52-1.6,1.7-2.8,3.12-4.39,1.41-1.6,7.36-.89,9-.66,1.64.24,3.37-.05,3.37-.05-.45,2.44-2.55,4.82-4.84,5.91Zm6.23-8.79c-2.16,1.32-7.53.39-8.42.24-.89-.15-2.25.04-2.25.04.35-1.64,1.4-2.95,2.65-4.68,1.23-1.74,7.23-1.64,8.88-1.58,1.66.07,3.34-.4,3.34-.4-.2,2.49-2.03,5.05-4.2,6.38Zm5.2-9.3c-2.07,1.46-7.47.86-8.37.77-.9-.11-2.25.18-2.25.18.24-1.66,1.2-3.04,2.33-4.84,1.13-1.81,7.11-2.08,8.77-2.12,1.66-.04,3.31-.62,3.31-.62-.03,2.5-1.72,5.18-3.79,6.63Zm4.42-9.56c-1.91,1.64-7.36,1.57-8.27,1.56-.9-.02-2.22.4-2.22.4.09-1.67.91-3.13,1.86-5.04.95-1.9,6.89-2.76,8.52-2.96,1.65-.19,3.24-.91,3.24-.91.2,2.48-1.2,5.3-3.12,6.95Zm3.72-10.2c-1.8,1.77-7.23,2.06-8.14,2.12-.91.05-2.19.55-2.19.55-.03-1.67.68-3.18,1.5-5.16.81-1.96,6.67-3.21,8.29-3.51,1.63-.32,3.16-1.14,3.16-1.14.38,2.46-.82,5.38-2.63,7.14Zm2.77-10.2c-1.61,1.94-6.96,2.83-7.87,2.98-.89.14-2.11.76-2.11.76-.23-1.66.34-3.23.92-5.28.6-2.04,6.27-3.91,7.87-4.38,1.58-.48,3.02-1.47,3.02-1.47.64,2.41-.23,5.43-1.83,7.39Zm1.68-10.39c-1.47,2.04-6.77,3.25-7.66,3.45-.87.2-2.05.91-2.05.91-.33-1.65.12-3.26.59-5.34.46-2.07,6.01-4.3,7.56-4.87,1.56-.57,2.93-1.65,2.93-1.65.8,2.35.12,5.44-1.36,7.49Zm.85-10.54c-1.25,2.15-6.33,3.78-7.17,4.06-.83.27-1.9,1.04-1.9,1.04-.5-1.56-.24-3.16-.03-5.23.21-2.07,5.44-4.8,6.92-5.53,1.5-.72,2.77-1.94,2.77-1.94,1.05,2.3.68,5.44-.58,7.6Z"/>
      <path class="cls-2" d="m145.67,121.36c-2.34,2-4.82,3.33-7.04,4.15-.28,7.29-6.27,13.14-13.63,13.14s-13.66-6.13-13.66-13.66,6.13-13.66,13.66-13.66c4.32,0,8.17,2.02,10.67,5.16.52-.24,1.07-.49,1.68-.75,2.93-1.23,11.08-8.09,11.08-8.09,0,0-3.37-1.8-3.42-2.59-.02-.42.5-2.1.98-3.75-5.59-4.96-12.94-7.98-21-7.98-17.48,0-31.66,14.17-31.66,31.66s14.17,31.66,31.66,31.66,31.66-14.17,31.66-31.66c0-3.93-.72-7.7-2.03-11.17-3.43,2.72-6.7,5.61-8.95,7.54Z"/>
      <g class="cls-5">
        <path class="cls-4" d="m132.49,126.58c-2.49-.36-4.47-1.4-5.52-3.2-1.05-1.8,2.36-3.55,3.85-4.34.88-.46,1.73-.95,2.69-1.46-2.07-2.38-5.11-3.89-8.52-3.89-6.24,0-11.3,5.06-11.3,11.3s5.06,11.3,11.3,11.3c5.82,0,10.61-4.4,11.23-10.05-1.56.36-2.87.45-3.74.33Z"/>
      </g>
      <path class="cls-4" d="m184.58,119.34c.18,1.87.28,3.75.28,5.66,0,33-26.85,59.85-59.85,59.85s-59.85-26.85-59.85-59.85,26.85-59.85,59.85-59.85c13.44,0,25.86,4.46,35.87,11.97.81-.15,1.7-.31,2.65-.5-10.57-8.42-23.95-13.47-38.51-13.47-34.16,0-61.85,27.69-61.85,61.85s27.69,61.85,61.85,61.85,61.85-27.69,61.85-61.85c0-2.65-.19-5.25-.51-7.8-.63.78-1.22,1.5-1.77,2.14Z"/>
      <g>
        <path class="cls-1" d="m176.07,112.11s-.23.99.07,2.4c.37-.58.72-1.13,1.02-1.59.06-.44.41-.99.86-1.51.09-.64.12-1.2.11-1.71-.26.23-.48.41-.57.48-.32.26-.66.78-.66.78-.49-.61-.65-1.36-.91-2.31-.14-.51.32-1.34.87-2.09-.34-.25-.74-.43-1.19-.56-.18.24-.31.47-.31.47-.17-.19-.3-.4-.42-.62-.42-.06-.87-.09-1.36-.08.25.61.61,1.27,1.2,1.93,0,0-.17,2.7,1.3,4.41Z"/>
        <path class="cls-1" d="m183.76,122.41s.3-1.08.21-2.18c0-.05-.01-.11-.02-.16-.4.46-.74.86-1.03,1.18-.07.3-.16.59-.29.85-.2.43-.72.85-1.27,1.21-.36.56-.78,1.24-1.23,1.97.59-.37,1.17-.67,1.45-.81.71-.34,1.31-.92,1.31-.92.5,1.09.32,2.57-.27,3.6-.59,1.02-3,1.79-3.4,1.92-.39.13-.9.49-.9.49-.11-.36-.14-.72-.13-1.11-.35.57-.69,1.12-1.01,1.64.02.14.03.26.06.4,0,0-1.08,1.31-.67,4.39,0,0-1.25,1.63-1.07,4.39,0,0-1.36,1.53-1.45,4.46,0,0-1.6,1.18-1.87,4.21,0,0-1.48.92-2.22,4.04,0,0-1.83,1.27-2.46,3.77,0,0-2.02,1.07-2.94,3.74,0,0-1.74.53-3.1,3.17,0,0,0,.06-.78.43-.78.39-1.96,1.54-2.73,2.68,0,0-.24.09-1.04.42-.79.33-1.92,1.24-2.66,2.39,0,0-2.22.19-3.97,2.4,0,0-1.87-.17-4.1,2.02,0,0-2.11-.21-4.33,1.72,0,0-2-.51-4.32,1.29,0,0-2.12-.55-4.56.94,0,0-1.85-.8-4.6.5,0,0-1.81-.9-4.58.11,0,0-1.74-1.06-4.6-.28,0,0-1.37-1.15-4.54-.64,0,0-1.13-1.31-4.5-1.12,0,0-1.3-1.55-4.37-1.46,0,0-1.19-1.63-4.07-1.87,0,0-1.37-1.82-4.08-2.24,0,0-1.45-2.02-3.82-2.46,0,0-.85-1.85-3.66-2.87,0,0-.58-2.01-3.3-3.08,0,0-.28-1.76-3.08-3.55,0,0-.32-1.94-2.73-3.67,0,0-.19-2.21-2.38-3.9,0,0,.12-1.88-2.04-4.23,0,0,.04-2.54-1.65-4.28,0,0,.19-2.68-1.31-4.37,0,0,.47-2.3-.88-4.34-.31-.52.19-.8.17-1.49-.01-.7-.28-2.42-.71-3.31,0,0,1-1.79-.13-4.54,0,0,1.04-1.56.32-4.66,0,0,1.16-1.52.68-4.58,0,0,1.2-.96,1.08-4.41,0,0,1.32-.84,1.48-4.35,0,0,1.62-1.11,1.85-4.23,0,0,1.57-.59,2.18-4,0,0,1.78-.82,2.56-3.73,0,0,.91-.62,1.44-1.27.53-.64,1.22-1.67,1.48-2.44,0,0,1.2-.5,1.94-1.49s1.18-1.9,1.18-1.9c0,0,2.04-.42,3.54-3.08,0,0,1.97-.14,3.68-2.7,0,0,1.94-.16,3.91-2.33,0,0,2.15.04,4.12-2.07,0,0,2.11.33,4.3-1.67,0,0,1.92.51,4.44-1.29,0,0,1.74.71,4.47-.85,0,0,1.66.73,4.64-.56,0,0,1.39,1.01,4.63-.07,0,0,1.85,1.02,4.52.29,0,0,1.41,1.11,4.53.7,0,0,1.37,1.41,4.54,1.08,0,0,.85,1.36,4.37,1.45,0,0,.67,1.39,4.16,1.83,0,0,.74,1.46,3.76,2.14.38-.46.8-.79,1.25-1.02-.21-1.06-.12-2.52-.08-3.05.06-.78-.13-1.58-.13-1.58,1.2.14,2.4,1.06,2.98,2.09.25.45.28,1.16.23,1.86.36-.04.72-.09,1.05-.17,0,0,.02,0,.03,0,.03-.62-.05-1.16-.05-1.16.6.12,1.18.43,1.67.85.35-.06.74-.13,1.16-.21-.16-.16-.34-.32-.56-.47-1.1-.77-2.73-1.36-2.73-1.36-.56-.78-1.13-1.17-2.07-1.71-.94-.55-2.04-.74-2.21-.83-.17-.09-.86-.78-1.82-1.31-.96-.54-2.93-.92-2.93-.92,0,0-.81-.79-1.95-1.19-1.29-.46-2.92-.53-2.92-.53,0,0-.7-.7-1.79-.99-1.33-.35-3.11-.31-3.11-.31,0,0-.85-.65-2.06-.91-1.37-.29-3.1-.17-3.1-.17,0,0-1.15-.54-2.35-.63-1.32-.11-2.69.21-2.69.21,0,0-1-.33-2.2-.35-1.33-.01-2.88.28-2.88.28,0,0-1.26-.24-2.47-.14-1.32.12-2.57.59-2.57.59,0,0-1.36-.18-2.52.02-1.4.24-2.64.88-2.64.88,0,0-1.28-.08-2.4.23-1.33.36-2.53,1.1-2.53,1.1,0,0-1.34.03-2.53.47-1.26.47-2.36,1.36-2.36,1.36,0,0-1.09-.09-2.21.42-1.18.54-2.38,1.67-2.38,1.67,0,0-1.09.09-2.1.65-1.26.7-2.5,1.92-2.5,1.92,0,0-1.09.36-2.03,1.01-1.13.8-2.15,1.92-2.15,1.92,0,0-.98.3-1.86,1.01-1.04.86-2,2.16-2,2.16,0,0-1.12.51-2.04,1.42-.97.97-1.74,2.35-1.74,2.35,0,0-.97.56-1.73,1.47-.79.94-1.4,2.23-1.4,2.23,0,0-1.09.81-1.81,1.83-.79,1.12-1.23,2.46-1.23,2.46,0,0-.93.83-1.56,1.93-.7,1.21-1.1,2.7-1.1,2.7,0,0-.85.78-1.36,1.83-.56,1.18-.79,2.67-.79,2.67,0,0-.78.93-1.19,2.06-.46,1.23-.56,2.67-.56,2.67,0,0-.73,1.03-1.04,2.21-.34,1.32-.26,2.82-.26,2.82,0,0-.65.98-.89,2.23-.25,1.29-.1,2.85-.1,2.85,0,0-.5,1.17-.61,2.41-.12,1.27.16,2.59.16,2.59,0,0-.36,1.34-.37,2.65-.01,1.33.33,2.64.33,2.64,0,0-.31,1.26-.18,2.53.13,1.31.68,2.62.68,2.62,0,0-.24,1.15-.03,2.36.23,1.31.9,2.69.9,2.69,0,0-.07,1.32.23,2.43.35,1.29,1.08,2.4,1.08,2.4,0,0-.03,1.29.36,2.4.48,1.37,1.41,2.63,1.41,2.63,0,0,.02,1.12.49,2.12.59,1.27,1.67,2.48,1.67,2.48,0,0,.09,1.12.64,2.11.7,1.25,1.9,2.43,1.9,2.43,0,0,.21,1.15.88,2.08.78,1.09,2.02,1.99,2.02,1.99,0,0,.3,1.07.98,1.91.94,1.15,2.37,2.17,2.37,2.17,0,0,.34.89,1.09,1.63,1,.99,2.49,1.91,2.49,1.91,0,0,.47.91,1.33,1.61,1.1.91,2.68,1.67,2.68,1.67,0,0,.63.97,1.51,1.58,1.11.77,2.52,1.21,2.52,1.21,0,0,.7.98,1.74,1.6,1.25.75,2.88,1.17,2.88,1.17,0,0,.85.84,1.86,1.3,1.27.59,2.77.83,2.77.83,0,0,.87.8,2.02,1.2,1.27.45,2.83.51,2.83.51,0,0,.83.73,1.93,1.04,1.37.39,3.05.36,3.05.36,0,0,.78.62,1.79.8,1.43.25,3.23.08,3.23.08,0,0,.93.55,2.05.65,1.4.13,3.04-.18,3.04-.18,0,0,.99.45,2.19.47,1.32.02,2.88-.4,2.88-.4,0,0,1.31.28,2.49.17,1.36-.13,2.62-.64,2.62-.64,0,0,1.17.28,2.32.07,1.38-.25,2.77-1,2.77-1,0,0,1.08.18,2.11-.09,1.4-.38,2.88-1.24,2.88-1.24.06,0,1.28,0,2.35-.4,1.27-.47,2.4-1.38,2.4-1.38,0,0,1.14-.01,2.25-.53,1.23-.57,2.43-1.63,2.43-1.63,0,0,1.12-.13,2.11-.7,1.22-.7,2.36-1.88,2.36-1.88,0,0,1.14-.29,1.99-.9,1.19-.85,2.21-2.09,2.21-2.09,0,0,1.12-.35,2-1.06,1.06-.86,1.91-2.11,1.91-2.11,0,0,1.1-.5,1.92-1.31,1-1,1.77-2.35,1.77-2.35,0,0,1-.58,1.79-1.52.86-1.02,1.54-2.42,1.54-2.42,0,0,.97-.65,1.61-1.57.79-1.11,1.26-2.51,1.26-2.51,0,0,.91-.72,1.5-1.74.73-1.26,1.18-2.88,1.18-2.88,0,0,.82-.76,1.3-1.79.6-1.29.88-2.91.88-2.91,0,0,.76-.76,1.16-1.86.41-1.15.47-2.63.47-2.63,0,0,.75-1.04,1.09-2.25.39-1.41.36-3.03.36-3.03,0,0,.62-.78.82-1.88.25-1.39.1-3.15.1-3.15,0,0,.5-.97.61-2.21.12-1.33-.15-2.94-.15-2.94,0,0,.42-.98.41-2.06,0-1.4-.43-2.97-.43-2.97Zm-32.24-48.78c.67.97.33,3.44.28,3.85-.06.41.06,1.01.06,1.01-.78-.11-1.42-.55-2.26-1.05-.85-.51-.96-3.27-.97-4.05,0-.78-.28-1.57-.28-1.57,1.21.03,2.49.83,3.17,1.8Zm-4.57-2.13c.75.91.61,3.41.58,3.82-.02.41.15,1.01.15,1.01-.78-.05-1.46-.43-2.34-.88-.89-.45-1.22-3.19-1.29-3.96-.07-.78-.4-1.55-.4-1.55,1.21-.07,2.55.63,3.3,1.56Zm-4.67-1.66c.82.85.89,3.35.9,3.76,0,.41.22.99.22.99-.78.02-1.48-.31-2.4-.69-.93-.38-1.48-3.09-1.61-3.85-.14-.77-.52-1.5-.52-1.5,1.19-.16,2.59.43,3.42,1.28Zm-4.91-1.32c.91.77,1.23,3.25,1.28,3.66.05.4.32.96.32.96-.78.09-1.51-.16-2.47-.44-.95-.28-1.78-2.92-1.99-3.66-.22-.75-.68-1.44-.68-1.44,1.17-.29,2.62.16,3.52.93Zm-4.97-.87c.97.68,1.52,3.11,1.62,3.52.09.4.41.93.41.93-.77.16-1.52-.02-2.49-.21-.98-.19-2.05-2.75-2.33-3.47-.28-.73-.81-1.38-.81-1.38,1.14-.39,2.63-.08,3.6.61Zm-4.98-.42c1.02.61,1.76,2.99,1.88,3.38.12.39.48.9.48.9-.75.21-1.52.07-2.5-.06-1-.13-2.26-2.59-2.59-3.29-.34-.7-.92-1.31-.92-1.31,1.11-.46,2.62-.23,3.65.38Zm-5.08-.05c1.07.5,2.06,2.84,2.22,3.22.16.38.58.85.58.85-.72.3-1.5.25-2.49.23-1-.01-2.51-2.37-2.92-3.04-.41-.67-1.04-1.22-1.04-1.22,1.05-.59,2.57-.55,3.66-.05Zm-4.98.46c1.12.41,2.3,2.65,2.5,3.02.2.37.65.8.65.8-.69.37-1.47.38-2.46.45-1,.07-2.71-2.14-3.18-2.78-.47-.64-1.15-1.13-1.15-1.13,1.01-.68,2.51-.77,3.64-.36Zm-5.01.93c1.15.3,2.54,2.41,2.77,2.77.23.35.72.74.72.74-.66.42-1.43.51-2.41.67-.99.17-2.9-1.88-3.43-2.47-.53-.59-1.25-1.02-1.25-1.02.93-.77,2.43-.99,3.59-.69Zm-4.8,1.33c1.17.22,2.71,2.24,2.96,2.57.25.33.77.68.77.68-.63.47-1.4.61-2.36.84-.97.23-3.03-1.68-3.59-2.23-.56-.55-1.32-.93-1.32-.93.87-.83,2.36-1.16,3.54-.93Zm-4.91,1.7c1.18.1,2.95,1.94,3.23,2.24.3.31.85.6.85.6-.55.53-1.29.75-2.22,1.08-.93.34-3.19-1.35-3.82-1.84-.62-.49-1.42-.78-1.42-.78.76-.92,2.18-1.4,3.37-1.3Zm-4.49,2.24c1.18.02,3.08,1.7,3.39,1.97.31.27.89.53.89.53-.52.54-1.24.8-2.14,1.17-.91.38-3.29-1.11-3.94-1.55-.66-.44-1.47-.67-1.47-.67.69-.93,2.07-1.48,3.27-1.45Zm-4.37,2.51h0c1.18-.09,3.24,1.39,3.57,1.63.34.24.93.45.93.45-.47.59-1.16.91-2.02,1.36-.86.46-3.38-.79-4.07-1.16-.7-.37-1.53-.53-1.53-.53.6-.99,1.92-1.66,3.11-1.75Zm-4.14,2.87c1.17-.19,3.35,1.1,3.7,1.32.36.21.97.36.97.36-.41.63-1.07,1.01-1.88,1.54-.82.53-3.43-.49-4.16-.8-.73-.31-1.57-.39-1.57-.39.51-1.04,1.76-1.83,2.95-2.02Zm-3.91,3.28c1.15-.29,3.43.8,3.82.98.38.18,1,.27,1,.27-.35.67-.97,1.1-1.74,1.7-.77.61-3.47-.18-4.22-.42-.75-.24-1.6-.25-1.6-.25.41-1.08,1.59-1.97,2.74-2.27Zm-3.5,3.56c1.11-.4,3.5.47,3.89.62.39.14,1.02.17,1.02.17-.29.69-.86,1.18-1.57,1.86-.7.68-3.46.14-4.24-.03-.77-.17-1.62-.1-1.62-.1.31-1.11,1.39-2.11,2.51-2.52Zm-3.24,3.91c1.07-.5,3.52.17,3.92.28.4.11,1.03.08,1.03.08-.22.71-.75,1.26-1.39,1.98-.64.73-3.44.44-4.23.34-.78-.1-1.62.04-1.62.04.21-1.13,1.2-2.22,2.29-2.72Zm-2.88,4.11c1.03-.59,3.52-.13,3.93-.05.42.08,1.04,0,1.04,0-.16.73-.64,1.32-1.22,2.1-.57.78-3.39.72-4.18.69-.79-.04-1.61.17-1.61.17.11-1.15,1.01-2.32,2.04-2.91Zm-2.53,4.38c.98-.66,3.5-.39,3.92-.34.42.05,1.03-.08,1.03-.08-.1.74-.54,1.36-1.05,2.18-.52.83-3.33.98-4.12,1-.79.02-1.59.3-1.59.3.02-1.15.83-2.39,1.82-3.05Zm-2.07,4.59c.91-.75,3.45-.73,3.87-.72.42,0,1.02-.18,1.02-.18-.03.75-.41,1.4-.84,2.27-.43.87-3.21,1.3-4,1.4-.78.1-1.56.45-1.56.45-.09-1.15.58-2.46,1.5-3.22Zm-1.7,4.65c.85-.81,3.39-.96,3.81-.98.41-.02,1-.24,1-.24.02.75-.31,1.43-.67,2.32-.37.9-3.12,1.51-3.89,1.66-.78.16-1.52.55-1.52.55-.17-1.14.41-2.49,1.28-3.31Zm-1.37,4.96c.74-.91,3.25-1.36,3.66-1.44.41-.08.96-.37.96-.37.12.74-.12,1.46-.37,2.39-.26.93-2.91,1.88-3.66,2.13-.75.25-1.43.74-1.43.74-.31-1.11.09-2.52.85-3.44Zm-.77,4.93c.68-.96,3.13-1.61,3.53-1.72.4-.11.94-.44.94-.44.17.72,0,1.46-.19,2.41-.18.95-2.74,2.1-3.47,2.41-.73.31-1.38.85-1.38.85-.4-1.08-.1-2.52.57-3.5Zm-.45,5.05c.59-1.01,2.99-1.85,3.38-1.99.39-.14.9-.51.9-.51.23.71.11,1.46,0,2.41-.11.96-2.57,2.3-3.27,2.66-.7.37-1.31.95-1.31.95-.48-1.04-.3-2.5.3-3.53Zm.04,8.58c-.57-1-.51-2.47,0-3.54.51-1.06,2.82-2.09,3.21-2.26.38-.17.85-.59.85-.59.29.7.23,1.45.2,2.41-.02.97-2.37,2.51-3.04,2.92-.67.42-1.22,1.05-1.22,1.05Zm.47,1.46c.4-1.1,2.6-2.35,2.96-2.56.36-.2.78-.66.78-.66.36.65.38,1.41.45,2.37.07.96-2.1,2.73-2.73,3.21-.62.48-1.11,1.17-1.11,1.17-.67-.94-.76-2.41-.36-3.52Zm.87,4.91c.32-1.13,2.44-2.52,2.79-2.75.35-.23.74-.71.74-.71.4.63.47,1.39.61,2.34.14.96-1.92,2.86-2.51,3.38-.6.52-1.04,1.24-1.04,1.24-.72-.89-.91-2.36-.59-3.49Zm2.22,8.26c-.81-.82-1.14-2.26-.93-3.42.21-1.15,2.18-2.73,2.51-3,.32-.26.67-.78.67-.78.46.59.6,1.33.83,2.27.23.94-1.64,3.03-2.17,3.6-.54.57-.91,1.32-.91,1.32Zm2.08,4.65c-.88-.75-1.32-2.15-1.21-3.33.11-1.17,1.95-2.91,2.24-3.19.3-.29.6-.84.6-.84.51.55.71,1.28,1.02,2.19.31.92-1.37,3.16-1.86,3.77-.49.62-.79,1.4-.79,1.4Zm3.07,2.95c-.43.66-.65,1.47-.65,1.47-.95-.66-1.53-2.02-1.53-3.2,0-1.17,1.65-3.08,1.93-3.39.27-.31.52-.89.52-.89.56.5.83,1.21,1.22,2.09.4.89-1.06,3.26-1.48,3.92Zm2.66,4.21h0c-.37.7-.53,1.52-.53,1.52-1-.59-1.69-1.89-1.79-3.07-.09-1.17,1.4-3.19,1.64-3.53.25-.33.44-.93.44-.93.6.46.93,1.15,1.4,1.99.47.86-.79,3.34-1.17,4.03Zm2.63,5.52c-1.04-.51-1.83-1.76-2.02-2.92-.19-1.16,1.14-3.3,1.36-3.65.22-.35.37-.95.37-.95.63.4,1.02,1.06,1.55,1.87.54.81-.53,3.39-.84,4.11-.31.71-.41,1.55-.41,1.55Zm3.79,2.01c-.24.75-.25,1.58-.25,1.58-1.09-.4-2-1.56-2.3-2.71-.3-1.14.81-3.39.99-3.77.18-.37.27-.99.27-.99.67.34,1.11.96,1.72,1.71.61.76-.19,3.43-.43,4.17Zm3.71,3.28c-.18.77-.1,1.6-.1,1.6-1.12-.3-2.14-1.37-2.56-2.48-.4-1.1.48-3.45.62-3.84.15-.39.17-1.01.17-1.01.7.28,1.2.85,1.88,1.55.68.69.14,3.42-.02,4.19Zm3.97,4.67c-1.18-.25-2.31-1.26-2.82-2.33-.51-1.09.23-3.5.35-3.91.12-.4.1-1.04.1-1.04.77.26,1.34.83,2.1,1.51.76.68.38,3.44.26,4.2-.13.77,0,1.57,0,1.57Zm1.27.49c-.6-1.04-.06-3.5.03-3.91.09-.41.02-1.05.02-1.05.78.2,1.4.72,2.21,1.34.82.62.67,3.4.61,4.17-.06.77.13,1.56.13,1.56-1.19-.15-2.4-1.06-3-2.1Zm4.36,2.54c-.68-.99-.33-3.49-.28-3.91.06-.42-.07-1.05-.07-1.05.8.14,1.46.61,2.32,1.17.86.55.94,3.34.94,4.11s.25,1.55.25,1.55c-1.2-.06-2.48-.88-3.16-1.87Zm4.6,2.11c-.78-.92-.69-3.44-.67-3.86.01-.42-.17-1.04-.17-1.04.81.06,1.51.47,2.41.93.92.47,1.26,3.23,1.34,4,.08.76.41,1.51.41,1.51-1.2.06-2.56-.63-3.33-1.55Zm4.68,1.69c-.85-.86-.96-3.38-.98-3.8-.02-.42-.25-1.02-.25-1.02.81,0,1.54.35,2.49.74.95.39,1.52,3.12,1.65,3.88.14.76.54,1.48.54,1.48-1.19.16-2.6-.43-3.45-1.28Zm4.93,1.3c-.93-.77-1.29-3.27-1.36-3.68-.06-.42-.35-1-.35-1,.81-.08,1.57.19,2.55.49.98.3,1.82,2.96,2.04,3.7.21.74.68,1.42.68,1.42-1.17.28-2.63-.17-3.56-.93Zm4.93.89c-.99-.7-1.53-3.16-1.63-3.58-.09-.41-.43-.96-.43-.96.8-.14,1.58.08,2.58.3,1,.23,2.04,2.82,2.31,3.54.27.73.78,1.37.78,1.37-1.15.35-2.64.02-3.62-.68Zm4.99.4c-1.04-.61-1.8-3.02-1.93-3.42-.13-.4-.5-.92-.5-.92.78-.21,1.57-.06,2.59.08,1.02.14,2.27,2.63,2.6,3.33.33.7.9,1.3.9,1.3-1.11.45-2.62.24-3.66-.37Zm5.06,0c-1.09-.52-2.06-2.86-2.22-3.24-.16-.39-.59-.88-.59-.88.76-.27,1.57-.19,2.59-.13,1.02.05,2.49,2.43,2.88,3.1.39.67,1.01,1.22,1.01,1.22-1.07.54-2.59.47-3.67-.06Zm5.06-.45c-1.13-.42-2.31-2.66-2.5-3.04-.2-.38-.66-.82-.66-.82.73-.34,1.55-.33,2.57-.36,1.02-.04,2.71,2.2,3.16,2.83.44.63,1.11,1.12,1.11,1.12-1.01.63-2.54.69-3.67.27Zm4.95-.94c-1.17-.32-2.54-2.45-2.77-2.8-.23-.36-.73-.77-.73-.77.7-.39,1.51-.45,2.53-.58,1.01-.13,2.89,1.95,3.39,2.54.5.59,1.21,1.02,1.21,1.02-.96.72-2.47.91-3.63.59Zm4.89-1.36c-1.2-.2-2.8-2.17-3.06-2.49-.27-.33-.81-.68-.81-.68.65-.47,1.45-.62,2.45-.85,1-.23,3.09,1.63,3.65,2.17s1.32.88,1.32.88c-.87.82-2.35,1.17-3.54.98Zm4.71-1.73c-1.19-.1-2.94-1.94-3.23-2.24-.29-.31-.86-.61-.86-.61.59-.53,1.37-.73,2.33-1.05.96-.31,3.19,1.38,3.79,1.86.61.49,1.37.78,1.37.78-.78.89-2.2,1.36-3.4,1.26Zm4.57-2.18c-1.21-.01-3.11-1.71-3.42-1.99s-.91-.54-.91-.54c.57-.57,1.33-.84,2.28-1.22.95-.39,3.31,1.13,3.95,1.57.64.44,1.44.67,1.44.67-.73.94-2.14,1.52-3.35,1.52Zm4.34-2.54c-1.21.12-3.27-1.37-3.61-1.62-.34-.25-.96-.44-.96-.44.5-.63,1.23-.97,2.13-1.46.9-.49,3.42.78,4.1,1.15.68.37,1.5.52,1.5.52-.62,1.02-1.96,1.74-3.16,1.86Zm4.13-2.85c-1.18.22-3.39-1.1-3.75-1.32-.37-.22-1.01-.36-1.01-.36.43-.66,1.13-1.07,1.98-1.62.85-.56,3.48.5,4.2.81.71.31,1.55.39,1.55.39-.52,1.06-1.78,1.88-2.96,2.1Zm3.9-3.3c-1.16.32-3.48-.78-3.86-.97-.39-.19-1.03-.28-1.03-.28.37-.7,1.03-1.16,1.82-1.79.79-.63,3.51.18,4.26.43.74.24,1.57.25,1.57.25-.41,1.1-1.59,2.03-2.75,2.36Zm3.56-3.53c-1.12.43-3.54-.47-3.94-.62-.4-.15-1.06-.17-1.06-.17.31-.73.92-1.25,1.65-1.95.73-.7,3.51-.13,4.28.04.77.18,1.59.11,1.59.11-.31,1.14-1.4,2.18-2.52,2.59Zm3.18-3.88c-1.09.52-3.57-.18-3.97-.29-.41-.12-1.07-.09-1.07-.09.24-.76.8-1.32,1.48-2.08.67-.76,3.49-.42,4.26-.31.78.11,1.6-.02,1.6-.02-.21,1.16-1.21,2.28-2.29,2.8Zm2.95-4.16c-1.02.62-3.57.18-3.99.11-.42-.07-1.07.02-1.07.02.16-.78.66-1.4,1.25-2.22.58-.82,3.43-.78,4.2-.75.78.03,1.58-.19,1.58-.19-.09,1.18-.96,2.39-1.99,3.02Zm2.46-4.4c-.98.69-3.54.41-3.97.37-.43-.05-1.07.08-1.07.08.11-.78.57-1.44,1.1-2.29.54-.86,3.37-.99,4.15-1.01.78-.02,1.57-.29,1.57-.29-.01,1.18-.81,2.45-1.79,3.14Zm2.1-4.53c-.91.78-3.49.74-3.92.74-.43,0-1.05.19-1.05.19.04-.79.43-1.48.88-2.39.45-.9,3.26-1.31,4.04-1.4.78-.09,1.54-.43,1.54-.43.09,1.17-.57,2.51-1.48,3.29Zm1.76-4.83c-.85.84-3.43.98-3.85,1.01-.43.02-1.04.26-1.04.26-.01-.79.32-1.51.71-2.44.39-.93,3.16-1.52,3.93-1.66.77-.15,1.5-.54,1.5-.54.18,1.17-.39,2.55-1.25,3.38Zm1.31-4.83c-.76.92-3.3,1.34-3.73,1.41-.42.07-1,.36-1,.36-.11-.78.16-1.53.44-2.5.28-.97,2.97-1.85,3.73-2.08.75-.23,1.43-.7,1.43-.7.31,1.14-.11,2.57-.86,3.5Zm.79-4.92c-.7.97-3.2,1.54-3.63,1.63-.41.09-.97.43-.97.43-.16-.78.06-1.55.28-2.53.22-.98,2.85-2.03,3.58-2.31.74-.27,1.39-.78,1.39-.78.38,1.11.06,2.57-.64,3.55Z"/>
      </g>
    </g>
  </g>
</svg>